<svg width="128" height="129" viewBox="0 0 128 129" fill="none" xmlns="http://www.w3.org/2000/svg">
<rect x="0.5" y="128.5" width="128" height="127" rx="63.5" transform="rotate(-90 0.5 128.5)" fill="white"/>
<path d="M59.158 93.7427C60.9489 95.0361 63.4493 94.6329 64.7427 92.842C66.0361 91.0511 65.6329 88.5507 63.842 87.2573L59.158 93.7427ZM25.5 64.5L23.158 61.2573C22.1168 62.0093 21.5 63.2156 21.5 64.5C21.5 65.7844 22.1168 66.9907 23.158 67.7427L25.5 64.5ZM63.842 41.7427C65.6329 40.4493 66.0361 37.9489 64.7427 36.158C63.4493 34.3671 60.9489 33.9639 59.158 35.2573L63.842 41.7427ZM28.5 60.5C26.2909 60.5 24.5 62.2909 24.5 64.5C24.5 66.7091 26.2909 68.5 28.5 68.5L28.5 60.5ZM102.5 68.5C104.709 68.5 106.5 66.7091 106.5 64.5C106.5 62.2909 104.709 60.5 102.5 60.5L102.5 68.5ZM63.842 87.2573L27.842 61.2573L23.158 67.7427L59.158 93.7427L63.842 87.2573ZM27.842 67.7427L63.842 41.7427L59.158 35.2573L23.158 61.2573L27.842 67.7427ZM28.5 68.5L102.5 68.5L102.5 60.5L28.5 60.5L28.5 68.5Z" fill="#008CCD"/>
</svg>
