<svg width="124" height="40" viewBox="0 0 124 40" fill="none" xmlns="http://www.w3.org/2000/svg">
<g clip-path="url(#clip0_1144_1123)">
<path d="M16.6217 2.26358C16.546 1.56358 16.2856 0.759033 16.2856 0.759033L14.1464 1.91358C13.9666 1.75449 13.7205 1.65903 13.4554 1.66358C13.1289 1.66358 12.8402 1.81358 12.6508 2.0454L10.3649 1.34085C10.3649 1.34085 10.2182 2.25903 10.2939 2.95903C10.3696 3.66812 10.6915 4.39085 10.6915 4.39085L12.6887 3.2954C12.878 3.50449 13.1573 3.63631 13.4696 3.63631C13.8624 3.63631 14.1985 3.42267 14.3689 3.10903L16.6075 3.80903C16.6075 3.80903 16.6974 2.97267 16.6217 2.26358Z" fill="white"/>
<path d="M19.2295 8.23635C17.8569 7.79999 16.9482 7.27271 16.5223 6.66817L16.0348 6.54999C15.6514 6.45908 15.2681 6.6818 15.1734 7.04544L14.7995 8.47726L15.8975 13.2454C16.5507 13.2091 17.1943 13.1727 17.8191 13.1363L19.2295 8.23635Z" fill="white"/>
<path d="M25.685 8.88631L24.8379 8.68176C24.4166 8.81358 23.896 8.88176 23.2571 8.88176C22.8169 8.88176 22.3863 8.84994 22.0313 8.81358L20.8386 12.9636C22.7223 12.8545 24.2841 12.7681 25.2496 12.7136L25.2827 12.709L25.3159 12.7136C25.349 12.7136 25.3774 12.7181 25.4105 12.7227L26.2009 9.71358C26.3003 9.3454 26.0684 8.97722 25.685 8.88631Z" fill="white"/>
<path d="M25.1833 6.63632C25.0934 6.48632 24.9846 6.35905 24.8568 6.25451C23.7682 5.3636 22.0975 6.74996 21.5296 7.28178C21.4255 7.11814 21.2598 6.99087 21.0469 6.94087C20.8386 6.89087 20.6351 6.92269 20.4647 7.01814C20.1429 6.2636 19.2247 4.46814 17.8948 4.84541C17.7386 4.89087 17.5872 4.9636 17.4357 5.0636C16.9766 5.38178 16.934 5.71814 16.9766 5.94541C17.1517 6.88632 19.3288 7.54996 20.0814 7.7545C20.1192 8.05451 20.3417 8.3136 20.6682 8.39541C21.0137 8.47723 21.364 8.32723 21.5343 8.04087L21.5627 8.04541C22.2774 8.14996 24.6533 8.42723 25.2259 7.61814C25.3679 7.43178 25.4673 7.10451 25.1833 6.63632ZM17.8995 6.04996C17.7765 5.95905 17.7954 5.7636 17.8711 5.6636C17.9232 5.59996 18.0321 5.54087 18.1078 5.52269C18.6426 5.37269 19.2153 6.14541 19.5892 6.8636C18.7704 6.59087 18.1977 6.26814 17.8995 6.04996ZM24.6201 7.22723C24.4261 7.49996 23.5411 7.52269 22.462 7.44087C23.1056 6.93632 23.9575 6.45451 24.3835 6.79996C24.6154 6.93178 24.6817 7.13632 24.6201 7.22723Z" fill="white"/>
<path d="M10.1898 6.79537L10.2276 6.76355C10.2182 6.77719 10.204 6.78628 10.1898 6.79537Z" fill="white"/>
<path d="M14.615 3.92273C14.3026 4.18182 13.9003 4.33637 13.4743 4.33637C13.1714 4.33637 12.8827 4.26364 12.6272 4.13182L11.1789 4.92273C11.6806 5.26818 11.9551 5.75455 11.9456 6.29546C11.9409 6.53637 11.8746 6.76818 11.7658 6.99546L12.949 6.74546C13.0484 6.72273 13.1525 6.71364 13.2566 6.71364C13.7015 6.71364 14.1038 6.92273 14.3688 7.24546L14.4682 6.87273C14.6292 6.25909 15.2018 5.82727 15.8644 5.82727C15.9827 5.82727 16.1011 5.84091 16.2146 5.86818L16.243 5.87727C16.2241 5.40909 16.4371 4.96818 16.8583 4.62273L14.615 3.92273Z" fill="white"/>
<path d="M5.11618 9.97725C4.22167 9.92725 3.48335 9.79998 2.90595 9.59998L1.03175 9.99543C0.657856 10.0727 0.425948 10.4272 0.506406 10.7818L1.26839 14.0909C1.33938 14.0772 1.40564 14.0682 1.47664 14.0636C2.45633 14.0091 4.05602 13.9227 5.99648 13.8091L5.11618 9.97725Z" fill="white"/>
<path d="M13.9287 7.93638C13.8435 7.58184 13.4791 7.35456 13.1099 7.43184L11.1079 7.85456C10.6678 8.27275 10.0904 8.65456 9.48932 8.99093L10.5353 13.5455C11.9315 13.4637 13.375 13.3818 14.8137 13.3C14.9273 13.2955 15.0409 13.2864 15.1592 13.2818L13.9287 7.93638Z" fill="white"/>
<path d="M10.5116 5.34999C10.3176 5.25909 10.1235 5.20454 9.93893 5.18181C8.38183 4.99999 7.66717 7.08636 7.41633 8.07272C7.26488 7.99545 7.08977 7.97272 6.90992 8.00909C6.72061 8.04999 6.56916 8.14999 6.4603 8.2909C5.79771 7.52272 4.17435 5.90454 2.84443 6.74545C2.68351 6.84545 2.53679 6.97727 2.40901 7.1409C2.00672 7.64545 2.07771 8.04545 2.20549 8.28636C2.74977 9.31363 5.56107 9.32272 6.40824 9.29999L6.61175 9.29545C6.78214 9.42272 7.00931 9.47727 7.23649 9.42727C7.4542 9.38181 7.62931 9.24999 7.7287 9.07727L7.92275 8.9909C8.6942 8.64999 11.2073 7.44545 11.2215 6.29545C11.2263 6.01818 11.1032 5.63181 10.5116 5.34999ZM3.10473 8.01818C3.01954 7.91363 3.00061 7.76363 3.09526 7.64545C3.16626 7.55454 3.24198 7.48636 3.31771 7.43636C3.86198 7.09545 4.78488 7.77272 5.45694 8.45454C4.18855 8.39999 3.29878 8.25909 3.10473 8.01818ZM8.38656 7.82727C8.67053 6.94545 9.17221 5.96363 9.80641 6.03636C9.89633 6.04545 9.99572 6.07727 10.0951 6.12727C10.2276 6.1909 10.3176 6.26363 10.3176 6.30909C10.3128 6.60909 9.47511 7.24999 8.38656 7.82727Z" fill="white"/>
<path d="M26.447 38.2273C25.1786 32.7364 24.3551 22.6545 26.1536 14.1682C26.1252 13.7227 25.756 13.3636 25.2875 13.3455C21.0847 13.5773 5.64626 14.4682 1.52397 14.6909C1.05069 14.7182 0.672061 15.0955 0.672061 15.5591C0.672061 15.5773 0.676794 15.5955 0.676794 15.6136C1.59969 20.7773 1.91206 29.8818 0 38.3409C0.0141985 38.7545 0.326565 39.0909 0.738321 39.1591C4.88427 39.1591 21.4397 39.1591 25.6803 39.1591C26.111 39.0909 26.4423 38.7318 26.4423 38.2955C26.447 38.2773 26.447 38.25 26.447 38.2273ZM18.6331 17.9455C19.1301 17.9455 19.5324 18.3318 19.5324 18.8091C19.5324 19.2864 19.1301 19.6727 18.6331 19.6727C18.1362 19.6727 17.7339 19.2864 17.7339 18.8091C17.7339 18.3318 18.1362 17.9455 18.6331 17.9455ZM7.3974 17.9864C7.89435 17.9864 8.29664 18.3727 8.29664 18.85C8.29664 19.3273 7.89435 19.7136 7.3974 19.7136C6.90046 19.7136 6.49817 19.3273 6.49817 18.85C6.49817 18.3727 6.90046 17.9864 7.3974 17.9864ZM13.0153 28.4682C9.41832 28.4682 6.49817 25.6636 6.49817 22.2091C6.49817 21.7318 6.90046 21.3455 7.3974 21.3455C7.89435 21.3455 8.29664 21.7318 8.29664 22.2091C8.29664 24.7136 10.4075 26.7409 13.0153 26.7409C15.6231 26.7409 17.7339 24.7136 17.7339 22.2091C17.7339 21.7318 18.1362 21.3455 18.6331 21.3455C19.1301 21.3455 19.5324 21.7318 19.5324 22.2091C19.5371 25.6682 16.6169 28.4682 13.0153 28.4682Z" fill="white"/>
<path d="M11.4298 0.9318L12.4757 1.24998C12.7597 1.06362 13.0957 0.963618 13.4507 0.959073C13.7015 0.959073 13.9429 1.00907 14.1606 1.09998L15.1024 0.590891C15.1214 0.5318 15.1356 0.472709 15.145 0.418163C15.3201 -0.3682 14.1985 0.454527 14.1085 0.527254C13.9618 0.1818 13.5927 -0.0409275 13.1904 0.00452708C12.7881 0.0454362 12.4804 0.345436 12.4142 0.709073C12.4095 0.709073 12.4095 0.713618 12.4095 0.713618C12.4095 0.713618 10.9991 0.0636181 11.3635 0.827254C11.3872 0.859073 11.4108 0.895436 11.4298 0.9318Z" fill="white"/>
<path d="M90.4963 16.15L90.4159 16.159L90.3449 16.2C88.7736 17.0636 87.4295 18.7636 86.9231 20.5409L86.7006 21.3181L87.4673 20.9909C88.4281 20.5772 91.4997 20.5909 93.9513 22.0909C96.0195 23.359 97.1365 25.3863 97.1696 27.9545C97.1696 34.0954 92.593 35.3545 91.3672 35.3545C86.4829 35.3545 85.3849 29.9681 85.3849 28.0818C85.3849 28.0818 85.3849 8.49086 85.3849 7.7545V7.37268H84.9873C82.6304 7.37268 80.4391 8.42723 78.9766 10.259L78.8962 10.359V10.4863C78.8914 11.8409 78.8962 27.8954 78.8962 27.8954C78.8962 30.509 79.9989 34.2499 83.0989 36.8954C85.4701 38.9181 88.0921 39.8636 91.3577 39.8636C94.7606 39.8636 103.592 37.7318 103.592 28.0045C103.564 25.0863 102.702 22.7318 100.88 20.5863C97.6524 16.7772 92.3989 15.9454 90.4963 16.15Z" fill="white"/>
<path d="M120.767 13.5908C122.566 13.5908 124.028 12.1863 124.028 10.4636C124.028 8.7363 122.566 7.3363 120.767 7.3363C118.969 7.3363 117.507 8.74085 117.507 10.4636C117.507 12.1863 118.969 13.5908 120.767 13.5908Z" fill="white"/>
<path d="M117.568 19.0863L117.488 19.1863V19.3136C117.488 19.7999 117.488 24.3908 117.488 29.0727C117.488 33.8136 117.488 38.6454 117.488 39.409V39.7863H117.88C120.204 39.7863 122.523 38.7226 123.934 37.009L124.019 36.9045V16.2227H123.626C121.264 16.2227 118.997 17.2908 117.568 19.0863Z" fill="white"/>
<path d="M72.0005 7.37268C70.202 7.37268 68.7443 8.77723 68.7443 10.5045C68.7443 12.2272 70.2067 13.6318 72.0005 13.6318C73.7989 13.6318 75.2614 12.2272 75.2614 10.5045C75.2614 8.77723 73.7989 7.37268 72.0005 7.37268Z" fill="white"/>
<path d="M68.801 19.1272L68.7206 19.2317V19.359C68.7206 19.8227 68.7206 24.0499 68.7206 28.5136C68.7206 33.4408 68.7206 38.659 68.7206 39.4545V39.8317H69.1134C71.4372 39.8317 73.7563 38.7681 75.1667 37.0545L75.2519 36.9545V35.9317C75.2519 32.0999 75.2519 17.2863 75.2519 16.6408V16.2636H74.8591C72.4974 16.259 70.2304 17.3317 68.801 19.1272Z" fill="white"/>
<path d="M41.7293 16.15L41.6488 16.159L41.5779 16.2C40.0066 17.0636 38.6624 18.7636 38.156 20.5409L37.9336 21.3181L38.6956 20.9909C39.6563 20.5772 42.7279 20.5909 45.1795 22.0909C47.2478 23.359 48.3647 25.3863 48.3979 27.9545C48.3979 34.0954 43.8212 35.3545 42.5954 35.3545C37.7159 35.3545 36.6179 29.9681 36.6179 28.0818C36.6179 28.0818 36.6179 8.49086 36.6179 7.7545V7.37268H36.2203C33.8633 7.37268 31.6721 8.42723 30.2096 10.259L30.1292 10.359V10.4863C30.1292 11.8409 30.1292 27.8954 30.1292 27.8954C30.1292 30.5136 31.2319 34.2499 34.3366 36.8954C36.7078 38.9181 39.3345 39.8636 42.5954 39.8636C45.9983 39.8636 54.8298 37.7318 54.8298 28.0045C54.8014 25.0909 53.9353 22.7318 52.1179 20.5863C48.8853 16.7772 43.6272 15.9409 41.7293 16.15Z" fill="white"/>
<path d="M58.5639 3.73176L58.493 3.82722V39.7545H58.8858C61.3942 39.7545 63.8836 38.559 64.9343 36.8499L64.9911 36.759V0.759033H64.5983C62.2272 0.759033 59.8607 1.92721 58.5639 3.73176Z" fill="white"/>
<path d="M107.331 3.73176L107.26 3.82722V39.7545H107.653C110.161 39.7545 112.651 38.559 113.706 36.8499L113.763 36.759V0.759033H113.37C110.994 0.759033 108.628 1.92721 107.331 3.73176Z" fill="white"/>
</g>
<defs>
<clipPath id="clip0_1144_1123">
<rect width="124" height="40" fill="white"/>
</clipPath>
</defs>
</svg>
