<svg width="128" height="129" viewBox="0 0 128 129" fill="none" xmlns="http://www.w3.org/2000/svg">
<rect x="127.5" y="0.5" width="128" height="127" rx="63.5" transform="rotate(90 127.5 0.5)" fill="white"/>
<path d="M68.842 35.2573C67.0511 33.9639 64.5507 34.3671 63.2573 36.158C61.9639 37.9489 62.3671 40.4493 64.158 41.7427L68.842 35.2573ZM102.5 64.5L104.842 67.7427C105.883 66.9907 106.5 65.7844 106.5 64.5C106.5 63.2156 105.883 62.0093 104.842 61.2573L102.5 64.5ZM64.158 87.2573C62.3671 88.5507 61.9639 91.0511 63.2573 92.842C64.5507 94.6329 67.0511 95.0361 68.842 93.7427L64.158 87.2573ZM99.5 68.5C101.709 68.5 103.5 66.7091 103.5 64.5C103.5 62.2909 101.709 60.5 99.5 60.5L99.5 68.5ZM25.5 60.5C23.2909 60.5 21.5 62.2909 21.5 64.5C21.5 66.7091 23.2909 68.5 25.5 68.5L25.5 60.5ZM64.158 41.7427L100.158 67.7427L104.842 61.2573L68.842 35.2573L64.158 41.7427ZM100.158 61.2573L64.158 87.2573L68.842 93.7427L104.842 67.7427L100.158 61.2573ZM99.5 60.5L25.5 60.5L25.5 68.5L99.5 68.5L99.5 60.5Z" fill="#008CCD"/>
</svg>
