<svg width="128" height="127" viewBox="0 0 128 127" fill="none" xmlns="http://www.w3.org/2000/svg">
<rect width="128" height="127" rx="63.5" fill="white"/>
<path d="M34.7573 58.658C33.4639 60.4489 33.8671 62.9493 35.658 64.2427C37.4489 65.5361 39.9493 65.1329 41.2427 63.342L34.7573 58.658ZM64 25L67.2427 22.658C66.4907 21.6168 65.2844 21 64 21C62.7156 21 61.5093 21.6168 60.7573 22.658L64 25ZM86.7573 63.342C88.0507 65.1329 90.5511 65.5361 92.342 64.2427C94.1329 62.9493 94.5361 60.4489 93.2427 58.658L86.7573 63.342ZM68 28C68 25.7909 66.2091 24 64 24C61.7909 24 60 25.7909 60 28H68ZM60 102C60 104.209 61.7909 106 64 106C66.2091 106 68 104.209 68 102H60ZM41.2427 63.342L67.2427 27.342L60.7573 22.658L34.7573 58.658L41.2427 63.342ZM60.7573 27.342L86.7573 63.342L93.2427 58.658L67.2427 22.658L60.7573 27.342ZM60 28V102H68V28H60Z" fill="#008CCD"/>
</svg>
